{
    "asset" : {
        "generator" : "Khronos glTF Blender I/O v1.8.19",
        "version" : "2.0"
    },
    "scene" : 0,
    "scenes" : [
        {
            "name" : "Scene",
            "nodes" : [
                0
            ]
        }
    ],
    "nodes" : [
        {
            "mesh" : 0,
            "name" : "Nut.001",
            "rotation" : [
                0,
                0,
                -0.7071068286895752,
                0.7071068286895752
            ],
            "scale" : [
                -0.015665000304579735,
                -0.015665028244256973,
                -0.015665028244256973
            ],
            "translation" : [
                -0.1809873878955841,
                0.03943958505988121,
                -4.997884750366211
            ]
        }
    ],
    "meshes" : [
        {
            "name" : "Nut.001",
            "primitives" : [
                {
                    "attributes" : {
                        "POSITION" : 0,
                        "NORMAL" : 1,
                        "TEXCOORD_0" : 2
                    },
                    "indices" : 3
                }
            ]
        }
    ],
    "accessors" : [
        {
            "bufferView" : 0,
            "componentType" : 5126,
            "count" : 11233,
            "max" : [
                82.1489486694336,
                2.450000047683716,
                81.77042388916016
            ],
            "min" : [
                -81.2726821899414,
                -25.022380828857422,
                -81.65091705322266
            ],
            "type" : "VEC3"
        },
        {
            "bufferView" : 1,
            "componentType" : 5126,
            "count" : 11233,
            "type" : "VEC3"
        },
        {
            "bufferView" : 2,
            "componentType" : 5126,
            "count" : 11233,
            "type" : "VEC2"
        },
        {
            "bufferView" : 3,
            "componentType" : 5123,
            "count" : 17292,
            "type" : "SCALAR"
        }
    ],
    "bufferViews" : [
        {
            "buffer" : 0,
            "byteLength" : 134796,
            "byteOffset" : 0
        },
        {
            "buffer" : 0,
            "byteLength" : 134796,
            "byteOffset" : 134796
        },
        {
            "buffer" : 0,
            "byteLength" : 89864,
            "byteOffset" : 269592
        },
        {
            "buffer" : 0,
            "byteLength" : 34584,
            "byteOffset" : 359456
        }
    ],
    "buffers" : [
        {
            "byteLength" : 394040,
            "uri" : "data:application/octet-stream;base64,"
        }
    ]
}
