{
    "asset" : {
        "generator" : "Khronos glTF Blender I/O v1.8.19",
        "version" : "2.0"
    },
    "scene" : 0,
    "scenes" : [
        {
            "name" : "Scene",
            "nodes" : [
                0
            ]
        }
    ],
    "nodes" : [
        {
            "mesh" : 0,
            "name" : "Gear.002",
            "rotation" : [
                0,
                0,
                -0.7071068286895752,
                0.7071068286895752
            ],
            "scale" : [
                0.028375744819641113,
                0.037514615803956985,
                0.028375744819641113
            ],
            "translation" : [
                0.11116740107536316,
                0.017217278480529785,
                6.341604709625244
            ]
        }
    ],
    "meshes" : [
        {
            "name" : "Gear.002",
            "primitives" : [
                {
                    "attributes" : {
                        "POSITION" : 0,
                        "NORMAL" : 1,
                        "TEXCOORD_0" : 2
                    },
                    "indices" : 3
                }
            ]
        }
    ],
    "accessors" : [
        {
            "bufferView" : 0,
            "componentType" : 5126,
            "count" : 12608,
            "max" : [
                44.86707305908203,
                2.6608688831329346,
                45.376129150390625
            ],
            "min" : [
                -45.35082244873047,
                -8.810808181762695,
                -44.841766357421875
            ],
            "type" : "VEC3"
        },
        {
            "bufferView" : 1,
            "componentType" : 5126,
            "count" : 12608,
            "type" : "VEC3"
        },
        {
            "bufferView" : 2,
            "componentType" : 5126,
            "count" : 12608,
            "type" : "VEC2"
        },
        {
            "bufferView" : 3,
            "componentType" : 5123,
            "count" : 19452,
            "type" : "SCALAR"
        }
    ],
    "bufferViews" : [
        {
            "buffer" : 0,
            "byteLength" : 151296,
            "byteOffset" : 0
        },
        {
            "buffer" : 0,
            "byteLength" : 151296,
            "byteOffset" : 151296
        },
        {
            "buffer" : 0,
            "byteLength" : 100864,
            "byteOffset" : 302592
        },
        {
            "buffer" : 0,
            "byteLength" : 38904,
            "byteOffset" : 403456
        }
    ],
    "buffers" : [
        {
            "byteLength" : 442360,
            "uri" : "data:application/octet-stream;base64,"
        }
    ]
}
